<?xml version="1.0" encoding="UTF-8"?>
<svg version="1.1" xmlns="http://www.w3.org/2000/svg" xmlns:xlink="http://www.w3.org/1999/xlink" x="0px" y="0px"
	 viewBox="0 0 230.6 55.2" width="230.6px" height="55.2px">
     <g>
    <path fill="#3366CA" d="M213.8 33c9 0 16.3-7.3 16.3-16.3 0-9-7.3-16.3-16.3-16.3 -9 0-16.3 7.3-16.3 16.3C197.6 25.7 204.8 33 213.8 33L213.8 33z"></path>
    <path fill="#FFFFFF" d="M213.8 33.5c-9.2 0-16.8-7.5-16.8-16.8S204.6 0 213.8 0c9.2 0 16.8 7.5 16.8 16.8S223.1 33.5 213.8 33.5zM213.8 1c-8.7 0-15.8 7.1-15.8 15.8s7.1 15.8 15.8 15.8c8.7 0 15.8-7.1 15.8-15.8S222.5 1 213.8 1z"></path>
    <path fill="#FFFFFF" d="M209.9 5.2c0.1 0 0 0.2 0.1 0.2 0 0 0.1 0.1 0.1 0.1 0 0 0.1 0.1 0.1 0.1 0.1 0 0 0.1 0.1 0.1 0.1 0 0.1 0.1 0.1 0.1 0.1 0 0 0.1 0.1 0.1 0 0.1 0.1 0.2 0 0.2 -0.1 0.1-0.1 0.2-0.3 0.2 0 0.1-0.1 0-0.2 0.1 -0.2 0.1-0.3 0.2-0.5 0.3 -0.1 0.1-0.2 0.1-0.3 0.2C209.2 7 209 7 208.9 7.1c-0.1 0-0.2 0.1-0.3 0.2 -0.1 0.1-0.2 0.1-0.3 0.2 -0.1 0-0.1 0.1-0.1 0.1 -0.1 0.2-0.4 0.2-0.5 0.4 -0.2 0.1-0.4 0.4-0.6 0.5 0 0.1-0.2 0.1-0.2 0.3 -0.1 0-0.1 0.2-0.3 0.2 -0.1 0.2-0.3 0.3-0.4 0.4 -0.1 0.1-0.2 0.2-0.3 0.3 -0.1 0.2-0.3 0.2-0.3 0.4 -0.1 0.1-0.3 0.2-0.3 0.4 0 0 0 0.1-0.1 0.1 -0.2 0.2-0.4 0.3-0.5 0.6 -0.1 0.1-0.2 0.2-0.3 0.4 -0.1 0.1-0.2 0.2-0.2 0.3 -0.1 0.1-0.2 0.2-0.3 0.3 0 0 0 0.1 0 0.1 -0.1 0.1-0.1 0.2-0.2 0.4 0 0.1-0.1 0.1-0.1 0.2 -0.1 0.1 0 0.3-0.2 0.4 -0.1 0.1 0 0.1-0.1 0.2 0 0.1 0 0.1 0 0.1 0 0.1-0.1 0.2-0.1 0.4 -0.1 0.1 0 0.2-0.1 0.3 0 0.3-0.1 0.5 0 0.7 0 0.2 0 0.4 0 0.6 -0.1 0.1 0 0.1 0.1 0.2 0 0.1 0 0.2 0 0.2 0 0.1 0.1 0.1 0.1 0.2 0 0 0 0.1 0 0.1 0.1 0.1 0.2 0.2 0.2 0.3 0.1 0 0.1 0.2 0.3 0.2 0.1 0.1 0.1 0.1 0.2 0.1 0.1 0 0.2 0.1 0.3 0.1 0.1 0 0.2 0.1 0.3 0.1 0.1 0 0.2 0.1 0.3 0.1 0.4 0.1 0.8 0.1 1.2 0.1 0 0 0.1 0 0.1 0 0.1 0 0.3-0.1 0.4-0.1 0.1 0 0.2-0.1 0.3 0 0.2-0.1 0.5-0.2 0.7-0.2 0-0.1 0.1 0 0.2-0.1 0.1 0 0.3 0 0.3-0.1 0 0 0.1 0 0.1-0.1 0.2 0 0.3-0.2 0.5-0.2 0.1-0.1 0.1-0.1 0.2-0.1 0.1-0.1 0.1-0.1 0.2-0.1 0.1 0 0.2-0.1 0.3-0.1 0.1 0 0.1-0.1 0.2-0.1 0 0 0.1 0 0.1-0.1 0.1 0 0.2-0.1 0.4-0.2 0 0 0 0 0.1 0 0.1-0.1 0.1-0.1 0.2-0.2 0.2 0 0.3-0.3 0.5-0.3 0-0.1 0.1 0 0.1-0.1 0.1-0.1 0.2-0.2 0.3-0.2 0 0 0.1 0 0.1-0.1 0.1-0.1 0.1-0.2 0.3-0.2 0.2-0.2 0.4-0.4 0.6-0.6 0.1 0 0.1-0.1 0.2-0.2 0.1-0.1 0.1-0.2 0.2-0.3 0.1-0.1 0.2-0.2 0.2-0.2 0-0.1 0.2-0.2 0.2-0.3 0.1-0.1 0.1-0.3 0.2-0.4 0-0.1 0.1-0.2 0.1-0.3 0-0.1 0-0.1 0-0.2 0.1-0.3 0-0.5-0.2-0.7 0-0.2-0.2-0.2-0.2-0.3 -0.1-0.1-0.2-0.2-0.3-0.2 -0.1-0.1-0.2-0.1-0.2-0.1 -0.1-0.1-0.3 0-0.4-0.1 -0.2 0-0.3-0.1-0.5 0 -0.1 0-0.2 0-0.2 0 -0.1 0-0.2-0.1-0.3 0 -0.2 0-0.4 0-0.6 0.1 0 0 0 0 0 0 0 0.1-0.1 0-0.2 0 -0.1 0-0.1 0.1-0.2 0 -0.1 0.1-0.2 0.1-0.4 0.1 -0.1 0.1-0.2 0.1-0.3 0.1 0 0-0.1 0-0.1 0 -0.2 0.1-0.4 0.1-0.6 0.3 -0.2 0-0.2 0.2-0.4 0.2 -0.1 0.1-0.2 0.1-0.3 0.2 -0.1 0.1-0.3 0.2-0.4 0.3 0 0.1-0.2 0.1-0.2 0.2 0 0 0 0-0.1 0 0 0.1-0.1 0.1-0.1 0.2 -0.2 0.2-0.3 0.4-0.4 0.5 0 0.1-0.2 0.1-0.1 0.2 -0.1 0.1-0.1 0.2-0.1 0.3 0 0 0 0.1-0.1 0.1 -0.1 0 0 0.1-0.1 0.2 0 0.1 0 0.2-0.1 0.2 0 0.1-0.1 0.1-0.1 0.1 0 0-0.1 0.1-0.1 0.1 -0.1 0 0 0.1 0 0.1 0 0-0.1 0.1-0.1 0.1 0 0 0 0 0 0.1 -0.1 0 0 0.2-0.1 0.1 0 0 0 0-0.1 0 0-0.1 0-0.2 0-0.3 0 0 0-0.1 0.1-0.1 0 0 0-0.1-0.1 0 0 0 0 0 0 0.1 0 0 0 0.1-0.1 0.1 0 0 0 0.1 0 0.1 0 0 0 0 0 0 0 0-0.1-0.1 0-0.1 0-0.1 0-0.1 0-0.2 0 0 0 0-0.1 0 0 0.1 0 0.1-0.1 0.2 0 0 0 0.1 0 0.2 0 0-0.1 0-0.1-0.1 0 0 0-0.1 0-0.1 0.1-0.1 0-0.1 0.1-0.2 -0.1-0.1 0-0.3 0-0.4 0 0 0 0 0 0 -0.1 0.1-0.1 0.2-0.2 0.3 0 0 0 0.1 0 0.1 0 0 0 0-0.1 0.1 -0.1 0.1-0.1-0.1-0.1-0.2 0.1 0 0-0.1 0.1-0.2 0-0.2 0.1-0.3 0.1-0.5 0.1 0 0-0.1 0-0.1 0-0.1 0.1-0.2 0.1-0.3 0.1-0.2 0.1-0.5 0.3-0.6 0-0.1 0.1-0.1 0.1-0.2 0.1-0.2 0.3-0.4 0.4-0.6 0.1-0.1 0.2-0.3 0.3-0.4 0.2-0.1 0.2-0.3 0.4-0.4 0.2-0.2 0.4-0.4 0.6-0.5 0 0 0.1-0.1 0.2-0.1 0.2-0.2 0.5-0.3 0.7-0.4 0.1-0.1 0.2-0.1 0.3-0.1 0.1-0.1 0.3-0.1 0.4-0.2 0.1-0.1 0.4-0.1 0.5-0.2 0.1 0 0.3 0 0.4 0 0.2 0 0.4-0.1 0.5 0 0.3 0 0.6 0 0.9 0.1 0.1 0 0.2 0.1 0.3 0.1 0.1 0.1 0.3 0.1 0.5 0.2 0.2 0 0.3 0.1 0.4 0.2 0.1 0.1 0.2 0.2 0.4 0.3 0.1 0.1 0.1 0.1 0.1 0.2 0.1 0.1 0.2 0.1 0.2 0.2 0.1 0.1 0.1 0.3 0.2 0.4 0 0.2 0.2 0.3 0.2 0.4 0 0.1 0.1 0.2 0.1 0.3 0.1 0.1 0.1 0.3 0.1 0.4 0.1 0.1 0 0.2 0 0.3 0 0.1 0 0.1 0 0.2 0 0.1 0 0.3-0.1 0.4 0 0.1-0.1 0.1-0.1 0.2 0 0.1-0.1 0.1 0 0.2 -0.1 0.1 0 0.1-0.1 0.2 0 0.2-0.2 0.3-0.2 0.4 0 0 0 0.1-0.1 0.1 0 0.1-0.1 0.2-0.2 0.3 -0.1 0.1-0.2 0.2-0.3 0.4 -0.2 0.1-0.2 0.3-0.4 0.4 -0.2 0.2-0.3 0.3-0.5 0.5 -0.1 0.1-0.1 0.1-0.2 0.2 -0.1 0.2-0.2 0.2-0.3 0.3 -0.1 0-0.1 0.1-0.1 0.1 -0.1 0-0.2 0.2-0.3 0.2 0 0-0.1 0.1-0.1 0.1 -0.1 0-0.1 0.1-0.2 0.1 -0.2 0.1-0.4 0.2-0.6 0.3 -0.2 0.1-0.4 0.2-0.5 0.3 -0.1 0.1-0.2 0.1-0.3 0.1 -0.2 0-0.3 0.2-0.5 0.2 -0.1 0-0.1 0.1-0.2 0.1 0 0-0.1 0-0.1 0.1 -0.1 0-0.1 0-0.2 0.1 -0.1 0-0.2 0.1-0.3 0.1 -0.1 0-0.1 0.1-0.2 0.1 -0.1 0-0.1 0.1-0.2 0.1 -0.1 0-0.1 0-0.2 0 -0.1 0-0.2 0.1-0.3 0.1 -0.1 0-0.1 0-0.2 0.1 -0.1 0-0.1 0.1-0.2 0 -0.1 0-0.2 0.1-0.3 0 -0.1 0-0.2 0-0.3 0 -0.1 0-0.2 0-0.3 0 -0.1 0-0.2-0.1-0.2 0 -0.2 0-0.3 0-0.5-0.1 -0.1 0-0.2-0.1-0.3-0.1 0-0.1-0.1 0-0.1 0 -0.1 0-0.1-0.1-0.2-0.1 -0.1-0.1-0.2 0-0.3-0.1 -0.1 0-0.2-0.1-0.3-0.1 -0.1 0-0.1 0-0.2 0 -0.1 0-0.1-0.1-0.2-0.1 -0.2-0.1-0.3-0.3-0.5-0.4 -0.3-0.2-0.5-0.4-0.7-0.7 0-0.1-0.2-0.1-0.2-0.2 -0.2-0.2-0.2-0.4-0.4-0.5 0-0.1 0-0.1 0-0.2 0-0.1-0.1-0.2-0.1-0.3 0-0.1 0-0.2-0.1-0.4 0-0.2 0-0.4 0-0.5 0-0.1 0-0.1 0-0.2 0-0.1 0-0.2 0-0.3 0-0.1 0.1-0.3 0.1-0.4 0-0.2 0.1-0.4 0.1-0.6 0.1-0.1 0-0.3 0.1-0.4 0-0.1 0.1-0.1 0.1-0.2 0.1-0.1 0.1-0.2 0.2-0.3 0 0 0 0 0 0 0.1-0.2 0.2-0.5 0.4-0.7 0-0.1 0.1-0.2 0.2-0.4 0.2-0.2 0.3-0.5 0.5-0.7 0.2-0.2 0.3-0.4 0.5-0.6 0-0.1 0.2-0.2 0.2-0.3 0 0 0 0 0 0 0.1-0.2 0.3-0.3 0.4-0.5 0.4-0.4 0.9-0.9 1.3-1.3 0.1 0 0.1-0.1 0.1-0.1 0.2-0.1 0.4-0.2 0.5-0.4 0.2-0.1 0.3-0.3 0.5-0.4 0.1 0 0.1-0.1 0.2-0.1 0-0.1 0.1-0.1 0.2-0.1 0.1 0 0.2-0.2 0.4-0.2 0.1-0.1 0.1-0.2 0.2-0.2 0.1-0.1 0.2-0.1 0.3-0.2 0.1 0 0-0.1 0.1-0.1 0.2 0 0.3-0.2 0.4-0.2 0.1-0.1 0.3-0.1 0.4-0.2 0.1 0 0.2-0.1 0.2-0.1C209.7 5.1 209.8 5.1 209.9 5.2L209.9 5.2z"></path>
    <path fill="#FFFFFF" d="M221.6 8.5c0.2 0 0.4 0 0.5 0 0.1 0 0.1 0.1 0.2 0.1 0 0.1 0.1 0 0.2 0 0.1 0 0.2 0.1 0.3 0.1 0.2 0.1 0.4 0.1 0.5 0.3 0.1 0 0.2 0.1 0.3 0.2 0.2 0 0.2 0.2 0.4 0.3 0.1 0.2 0.3 0.2 0.4 0.4 0.1 0.2 0.3 0.3 0.4 0.5 0 0.1 0.1 0.1 0.1 0.2 0.1 0.1 0.1 0.2 0.2 0.4 0 0.1 0.1 0.1 0.1 0.1 0 0.1 0.1 0.3 0.1 0.4 0.1 0.3 0.1 0.5 0.2 0.8 0 0.1 0 0.2 0 0.2 0 0 0 0.1 0 0.1 0 0.1 0 0.2 0 0.3 0.1 0 0 0.1 0 0.2 -0.1 0.1 0 0.2-0.1 0.3 0.1 0.1-0.1 0.2-0.1 0.4 0 0 0 0.1-0.1 0.1 0 0.1 0 0.2-0.1 0.3 -0.1 0.1 0 0.1-0.1 0.2 0 0.1-0.1 0.2-0.2 0.3 0 0.1-0.1 0.1-0.1 0.2 0 0.1-0.1 0.1-0.1 0.2 -0.1 0-0.1 0.1-0.1 0.2 -0.1 0.2-0.2 0.3-0.3 0.5 -0.1 0.1-0.2 0.2-0.2 0.3 -0.1 0.1-0.2 0.3-0.3 0.4 -0.1 0.2-0.2 0.2-0.3 0.3 0 0.1-0.1 0-0.1 0.1 -0.1 0.1-0.3 0.2-0.4 0.3 -0.1 0-0.1 0.1-0.2 0.1 0 0.1-0.2 0.1-0.2 0.2 0 0-0.1 0-0.1 0 0 0-0.1 0-0.1 0.1 -0.1 0.1-0.3 0.1-0.4 0.2 -0.1 0-0.1 0.1-0.2 0.1 -0.1 0.1-0.2 0.1-0.3 0.1 -0.1 0-0.1 0.1-0.2 0.1 -0.1 0-0.2 0.1-0.3 0.1 -0.2 0-0.3 0.1-0.5 0.1 -0.1 0.1-0.3 0-0.4 0.1 -0.1 0-0.2 0-0.4 0 -0.1 0-0.2 0-0.3 0.1 -0.1 0-0.2 0-0.3 0 -0.1 0.1-0.2 0-0.3 0 -0.2 0-0.3 0-0.5 0 -0.2 0-0.3 0-0.5-0.1 -0.1 0.1-0.2-0.1-0.3 0 0-0.1-0.1 0-0.1-0.1 -0.1 0-0.3 0-0.4-0.1 -0.1 0-0.3-0.1-0.4-0.1 -0.1-0.1-0.2-0.2-0.3-0.2 -0.1-0.1-0.2-0.2-0.3-0.3 0-0.1-0.1 0-0.1-0.1 0-0.1-0.2-0.2-0.2-0.3 -0.1-0.1-0.1-0.2-0.2-0.3 -0.1-0.2-0.2-0.3-0.2-0.5 -0.1-0.2-0.1-0.4-0.1-0.6 -0.1-0.1 0.1-0.2 0.1-0.3 0-0.2 0-0.3 0.1-0.4 0.1-0.2 0.1-0.3 0.3-0.4 0-0.1 0.1 0 0.2-0.1 0 0 0 0 0.1 0 0 0 0 0.1 0 0.1 -0.1 0-0.1 0.2-0.2 0.2 0 0 0 0.1 0 0.1 0.1 0 0.1-0.1 0.2-0.2 0-0.1 0.2-0.1 0.1-0.2 0.1 0 0.2-0.1 0.3-0.2 0.1 0 0.1-0.1 0.2-0.1 0 0.1 0 0.1 0 0.1 -0.1 0.1-0.2 0-0.2 0.1 0 0.1-0.1 0.1-0.1 0.1 -0.1 0-0.1 0.1-0.1 0.1 0 0 0 0 0.1 0 0.1-0.1 0.1-0.2 0.2-0.2 0.2 0 0.2-0.2 0.3-0.2 0-0.1 0.1 0 0.1 0 0 0 0 0-0.1 0.1 0 0 0 0-0.1 0 0 0 0 0.1 0.1 0.1 0 0 0 0 0 0 0 0 0 0 0 0 -0.1 0-0.1 0.2-0.2 0.2 0 0-0.1 0.1-0.1 0.1 0 0 0 0 0 0 0-0.1 0.1 0.1 0.2-0.1 0-0.1 0.1 0 0.2-0.1 0 0 0 0 0 0.1 -0.1 0.1-0.1 0.1-0.2 0.1 0 0.1-0.1 0.1-0.2 0.2 -0.1 0.2-0.3 0.3-0.4 0.5 -0.1 0.1-0.1 0.2-0.2 0.3 -0.1 0 0 0.1-0.1 0.2 0 0.2-0.1 0.3-0.1 0.5 0 0.1 0 0.2 0.1 0.3 0 0.1 0.1 0.1 0.1 0.2 0.1 0.1 0.1 0.3 0.3 0.3 0.1 0.1 0.3 0.1 0.4 0.2 0.2 0 0.3 0.1 0.4 0.1 0.1 0 0.2 0 0.2 0.1 0.2 0 0.5 0 0.8 0 0.2-0.1 0.3 0 0.5-0.1 0.1 0 0.2 0 0.3 0 0.1 0 0.2 0 0.2-0.1 0.1 0 0.2-0.1 0.3 0 0-0.1 0.1 0 0.1 0 0.1-0.1 0.3-0.1 0.4-0.1 0.1-0.1 0.2 0 0.3-0.1 0.1 0 0.1-0.1 0.2-0.1 0.1 0 0.2 0 0.2-0.1 0.2-0.1 0.3-0.2 0.5-0.3 0.2-0.1 0.4-0.2 0.6-0.4 0 0 0.1 0 0.1-0.1 0.3-0.2 0.5-0.4 0.7-0.6 0-0.1 0.1-0.2 0.2-0.2 0.2-0.2 0.3-0.3 0.5-0.5 0-0.1 0.1-0.1 0.1-0.2 0.2-0.2 0.3-0.4 0.4-0.6 0.1 0 0.1-0.1 0.1-0.2 0.2-0.2 0.2-0.4 0.3-0.6 0-0.2 0.1-0.3 0.1-0.5 0.1-0.1 0.1-0.2 0.1-0.4 0-0.1 0-0.2 0-0.3 0-0.2 0.1-0.5 0-0.6 0-0.2-0.1-0.3-0.2-0.5 0-0.1-0.1-0.1-0.1-0.2 -0.1-0.2-0.3-0.2-0.4-0.4 -0.1 0-0.2-0.1-0.3-0.1 -0.1 0-0.2-0.1-0.3-0.1 -0.1 0-0.1 0-0.2-0.1 0-0.1-0.1 0-0.1-0.1 -0.1 0-0.1 0-0.2 0 -0.3 0-0.6-0.1-0.8 0 -0.1 0-0.2 0-0.3 0 0 0 0 0.1-0.1 0 0-0.1-0.1 0-0.2 0 0 0 0 0-0.1 0 0 0.1-0.1 0-0.2 0.1 -0.1 0-0.2 0-0.3 0.1 -0.1 0-0.1 0-0.2 0 -0.1 0-0.2 0.1-0.3 0 -0.1 0.1-0.2 0.1-0.3 0.1 -0.1 0-0.2 0-0.3 0.1 -0.1 0-0.1 0.1-0.2 0.1 -0.1 0-0.2 0.1-0.2 0.1 -0.1 0-0.1 0.1-0.2 0.1 -0.1 0-0.2 0.1-0.3 0.1 0 0-0.1 0-0.1 0.1 -0.1 0.1-0.2 0.1-0.2 0.2 -0.1 0-0.2 0.1-0.3 0.1 0 0-0.1 0-0.1 0.1 0 0 0 0 0 0 0 0 0 0-0.1 0 -0.2 0.1-0.4 0.2-0.5 0.4 -0.1 0-0.1 0.1-0.1 0.1 -0.1 0.1-0.2 0.2-0.4 0.3 -0.3 0.2-0.5 0.5-0.7 0.7 0 0 0 0-0.1 0 0 0.1-0.1 0.2-0.2 0.2 -0.1 0.1-0.1 0.2-0.2 0.2 -0.1 0.1-0.1 0.1-0.2 0.2 0 0.1-0.1 0.1-0.2 0.2 -0.1 0-0.2 0.1-0.3 0 -0.1 0-0.1 0-0.1-0.1 0-0.1 0-0.1 0-0.2 -0.1 0-0.1-0.1-0.2-0.1 -0.1-0.2-0.2-0.4-0.2-0.6 0-0.1 0.1-0.2 0.1-0.3 0.1-0.1 0.2-0.2 0.2-0.3 0 0 0 0 0-0.1 0.2-0.2 0.4-0.4 0.6-0.6 0.1-0.1 0.2-0.1 0.2-0.2 0.1 0 0.2-0.2 0.3-0.3 0.2-0.1 0.3-0.2 0.4-0.3 0.2-0.2 0.5-0.3 0.7-0.5 0.1-0.1 0.3-0.2 0.4-0.2 0.2-0.3 0.5-0.3 0.8-0.4 0.1-0.1 0.3-0.1 0.4-0.2 0.1 0 0.2-0.1 0.3-0.1 0.1 0 0.1 0 0.2-0.1 0.1 0 0.2 0 0.2-0.1 0.2 0 0.5-0.2 0.7-0.2 0 0 0 0 0.1 0 0.2 0 0.4 0 0.6 0 0.1 0 0.2 0 0.3 0C221.5 8.5 221.5 8.5 221.6 8.5L221.6 8.5z"></path>
    <path fill="#FFFFFF" d="M212.7 17.5c0.1 0.1 0.1 0.2 0.2 0.1 0 0 0.1 0 0.1 0.1 0.1 0 0.2 0.2 0.3 0.1 0 0.1 0.1 0.1 0.1 0.2 0 0 0.1 0.1 0.1 0.1 0.1 0.1 0 0.1 0 0.2 -0.1 0.1-0.2 0.2-0.3 0.3 -0.1 0 0 0.1-0.1 0.1 -0.1 0.1-0.3 0.1-0.4 0.3 -0.2 0.1-0.3 0.3-0.5 0.4 0 0.1-0.1 0.1-0.1 0.1 -0.2 0.2-0.5 0.5-0.8 0.7 -0.1 0-0.1 0.1-0.1 0.1 0 0.1-0.1 0-0.1 0.1 -0.1 0.1-0.1 0.1-0.2 0.2 -0.2 0.2-0.4 0.4-0.6 0.6 0 0 0 0 0 0.1 0 0 0 0.1-0.1 0.1 0 0.1-0.1 0.1-0.1 0.2 0 0-0.1 0-0.1 0.1 -0.1 0.1-0.1 0.3-0.3 0.3 -0.1 0.1-0.2 0.3-0.4 0.4 0 0 0 0.1-0.1 0.1 -0.1 0 0 0.1-0.1 0.1 0 0.1-0.1 0.1-0.1 0.2 0 0.1-0.1 0.1-0.1 0.2 0 0.1-0.1 0.2-0.2 0.3 -0.1 0.1-0.2 0.2-0.2 0.4 -0.1 0.1-0.1 0.3-0.3 0.4 0 0.1-0.1 0.2-0.1 0.3 -0.1 0.1 0 0.1-0.1 0.2 0 0 0 0.1 0 0.1 0 0.1-0.1 0.1-0.1 0.2 0 0.1 0 0.2-0.1 0.3 0.1 0.1-0.1 0.1 0 0.2 -0.1 0 0 0.1-0.1 0.2 0 0 0 0.1 0 0.1 0 0.1-0.1 0.3 0 0.5 0 0.1 0 0.3 0.1 0.4 0 0.1 0 0.2 0.1 0.3 0 0 0 0.1 0.1 0.1 0 0.1 0.1 0.1 0 0.1 0.1 0.1 0.1 0.1 0.2 0.2 0 0 0.1 0.1 0.1 0.1 0.1 0.1 0.2 0.2 0.3 0.2 0 0 0.1 0.1 0.1 0.1 0.1 0.1 0.2 0.1 0.3 0.1 0.1 0.1 0.3 0.1 0.5 0.1 0 0 0.1 0 0.1 0 0.1 0.1 0.2 0 0.3 0 0 0 0.1 0 0.2 0 0.1 0 0.1 0 0.2 0 0.1 0 0.2 0.1 0.3 0 0.2 0 0.3 0 0.5-0.1 0.1 0 0.1 0 0.2 0 0.1 0 0.2-0.1 0.3 0 0.1 0 0.2 0 0.3 0 0.1 0 0.3-0.1 0.4-0.1 0.1 0 0.2-0.1 0.3 0 0.2 0 0.3-0.1 0.5-0.1 0 0 0.1 0 0.1 0 0 0 0.1 0 0.1 0 0.1-0.1 0.2 0 0.3-0.1 0 0 0.1 0 0.1 0 0.1 0 0.2 0 0.3-0.1 0.2 0 0.3-0.1 0.5-0.1 0.1-0.1 0.3-0.1 0.4-0.1 0.1-0.1 0.3-0.1 0.4-0.2 0.1-0.1 0.2 0 0.2-0.1 0.1 0 0.2 0 0.2-0.1 0.1 0 0.2-0.1 0.3-0.2 0.1 0 0.2 0 0.2-0.1 0 0 0 0 0.1 0 0.1-0.1 0.2-0.2 0.3-0.1 0 0-0.1 0.1 0 0.1 0 0.1-0.1 0-0.1 0.1 -0.1 0-0.1 0.1-0.2 0.1 0 0 0 0 0 0 0 0 0 0 0 0.1 0-0.1 0.1 0 0.2-0.1 0.1 0 0.2-0.1 0.3-0.1 0.1 0 0.2-0.2 0.3-0.1 0 0 0 0.1-0.1 0.1 0 0 0 0 0 0.1 0 0.1 0.1-0.1 0.2 0 0.1-0.1 0.2 0 0.2-0.2 0-0.1 0.1-0.1 0.2-0.1 0 0 0.1 0 0.1 0.1 -0.1 0-0.1 0.2-0.3 0.2 0 0-0.1 0-0.1 0.1 0 0.1 0 0 0.1 0 0.1 0 0.2-0.1 0.2 0 0 0 0.1 0 0.1 0 0 0.1-0.1 0.1-0.1 0.1 0 0-0.1 0-0.1 0.1 0 0.1-0.2 0.1-0.2 0.2 0 0 0.1 0.1 0.1 0 0.1-0.1 0.2 0 0.2-0.1 0 0 0.1 0 0.1 0 0 0 0 0.2-0.1 0.1 0 0-0.1 0-0.2 0.1 0.1 0 0 0-0.1 0 -0.1 0.1-0.2 0.1-0.3 0.2 0 0-0.1 0.1-0.1 0.1 -0.2 0.1-0.4 0.2-0.6 0.3 -0.1 0-0.1 0-0.2 0.1 0 0 0 0-0.1 0.1 -0.1 0.1-0.3 0.1-0.4 0.1 0 0 0 0.1-0.1 0 0 0.1-0.1 0-0.1 0.1 -0.1 0-0.2 0-0.3 0.1 -0.1 0-0.3 0.1-0.4 0.1 -0.1 0.1-0.3 0-0.4 0.1 -0.1 0-0.1 0-0.1 0 -0.2 0-0.3 0-0.5 0.1 -0.1 0-0.3 0-0.4 0.1 -0.1 0-0.2 0-0.2 0 -0.1 0-0.2 0-0.2 0 -0.2 0-0.3 0-0.5 0 0 0-0.1 0-0.1 0 0 0-0.1 0-0.2 0 -0.1 0-0.2 0-0.3 0 -0.1 0.1-0.2 0-0.2 0 -0.1 0-0.3 0.1-0.4 0 -0.1 0-0.1 0-0.2 0 -0.2 0-0.3-0.1-0.5-0.1 0 0-0.1 0-0.1 0 -0.1-0.1-0.3-0.1-0.5-0.1 -0.3 0-0.5-0.2-0.8-0.3 -0.1 0-0.2-0.1-0.3-0.2 -0.1-0.1-0.2 0-0.2-0.1 -0.1-0.1-0.2-0.2-0.4-0.3 -0.1-0.1-0.2-0.2-0.3-0.3 -0.1-0.1-0.2-0.3-0.3-0.4 0-0.1-0.2-0.1-0.2-0.2 -0.1-0.2-0.2-0.4-0.2-0.6 -0.1-0.1 0-0.3-0.1-0.4 0-0.1-0.1-0.1 0-0.2 0-0.1 0-0.2 0-0.3 0 0 0 0 0 0 0-0.2 0-0.4 0-0.5 0-0.1 0.1-0.2 0.1-0.4 0-0.1 0-0.1 0.1-0.2 0-0.1 0-0.3 0.1-0.5 0-0.1 0.1-0.2 0.1-0.3 0-0.1 0.1-0.2 0.1-0.3 0-0.1 0.1-0.2 0.1-0.3 0 0 0 0 0.1 0 0-0.1 0.1-0.1 0.1-0.1 0-0.1 0.2-0.2 0.2-0.4 0.1-0.2 0.3-0.3 0.4-0.5 0.1-0.1 0.1-0.2 0.2-0.2 0-0.1 0.1-0.1 0.1-0.2 0.1-0.1 0.2-0.3 0.3-0.4 0.1-0.2 0.3-0.2 0.3-0.4 0.2-0.1 0.2-0.4 0.4-0.5 0.1-0.1 0.2-0.2 0.3-0.3 0.1-0.1 0.1-0.2 0.2-0.2 0.1-0.1 0.3-0.3 0.4-0.5 0-0.1 0.1-0.1 0.1-0.1 0.1-0.1 0.2-0.2 0.4-0.3 0.1 0 0.1-0.1 0.1-0.2 0 0 0 0 0 0 0.1-0.1 0.2-0.1 0.2-0.2 0.2-0.1 0.2-0.3 0.4-0.3 0.1-0.1 0.2-0.1 0.3-0.2 0.1-0.1 0.2-0.2 0.3-0.2 0.1-0.1 0.2-0.2 0.3-0.2 0 0 0.1 0 0.1 0C212.5 17.4 212.6 17.5 212.7 17.5 212.6 17.5 212.7 17.5 212.7 17.5L212.7 17.5z"></path>
    <path d="M0 18.3h10.8v8.9c2.1-0.8 4.2-1.2 6.4-1.2 4.4 0 7.9 1.4 10.6 4.1 2.8 2.7 4.1 6.2 4.2 10.6 0 3.4-1.1 6.5-3.4 9.4 -2.3 3-6 4.6-11 4.7H0V18.3zM10.8 45.4c1.4 0.2 2.7 0.4 3.7 0.4 2.1 0 3.7-0.5 4.9-1.5 1.2-0.9 1.8-2.2 1.8-3.9 0-1.6-0.6-3-1.7-4 -1.2-0.9-2.7-1.4-4.7-1.5 -1.3 0-2.6 0.2-4.1 0.7V45.4zM33.4 40.6c0-3.8 1.3-7.2 3.9-10.1 2.6-3 6.8-4.5 12.5-4.5 5.9 0.1 10.2 1.7 12.7 4.7 2.5 2.9 3.8 6.2 3.7 9.9 0 3.9-1.3 7.3-4 10.1 -2.7 3-6.8 4.5-12.4 4.5 -5.8-0.1-10.1-1.7-12.7-4.8C34.6 47.5 33.3 44.2 33.4 40.6zM44.1 40.6c0 1.6 0.5 2.9 1.6 3.9 1 1 2.4 1.5 4.1 1.5 1.7 0 3.1-0.5 4.1-1.5 1-1 1.6-2.3 1.6-3.9 0-1.6-0.5-3-1.6-4 -1-1-2.4-1.5-4.1-1.5 -1.7 0-3.1 0.5-4.1 1.5C44.7 37.6 44.1 38.9 44.1 40.6zM67.6 18.3h10.8v36.4H67.6V18.3zM86.7 42.1c1.8 0 3.3 0.7 4.5 1.9 1.2 1.2 1.8 2.8 1.8 4.7 0 1.8-0.6 3.4-1.8 4.6 -1.2 1.3-2.7 1.9-4.5 2 -1.8 0-3.3-0.7-4.4-2 -1.3-1.2-1.9-2.8-1.9-4.6 0-1.9 0.6-3.5 1.9-4.7C83.4 42.7 84.9 42.1 86.7 42.1zM117.7 53.4c-3.2 1.2-6.1 1.8-8.7 1.7 -4.6 0-8.3-1.4-11.2-4 -2.9-2.6-4.3-6.1-4.3-10.4 0-3.7 1.2-7.1 3.7-10.1 2.5-3 6.3-4.6 11.5-4.7 3 0 5.9 0.5 8.8 1.5v9.4c-2.3-1.2-4.6-1.8-6.8-1.8 -1.9 0-3.5 0.5-4.6 1.5 -1.2 1-1.8 2.3-1.8 4 0 1.7 0.6 2.9 1.9 3.9 1.2 1 2.8 1.5 4.8 1.5 1.8 0 4-0.5 6.7-1.7V53.4zM119.7 40.6c0-3.8 1.3-7.2 3.9-10.1 2.6-3 6.8-4.5 12.5-4.5 5.9 0.1 10.2 1.7 12.7 4.7 2.5 2.9 3.8 6.2 3.7 9.9 0 3.9-1.3 7.3-4 10.1 -2.7 3-6.8 4.5-12.4 4.5 -5.8-0.1-10.1-1.7-12.7-4.8C120.9 47.5 119.6 44.2 119.7 40.6zM130.4 40.6c0 1.6 0.5 2.9 1.6 3.9 1 1 2.4 1.5 4.1 1.5 1.7 0 3.1-0.5 4.1-1.5 1-1 1.6-2.3 1.6-3.9 0-1.6-0.5-3-1.6-4 -1-1-2.4-1.5-4.1-1.5 -1.7 0-3.1 0.5-4.1 1.5C131 37.6 130.4 38.9 130.4 40.6zM154.4 26.5h10.8v3.7c2.6-2.8 5.5-4.2 8.9-4.2 3.8 0 6.6 1.6 8.6 5 2.9-3.3 6.3-5 10.2-5 3.1 0 5.4 1.1 6.8 3.2 1.4 2.1 2.1 4.6 2.1 7.5v18.1h-10.8V38.5c0-1-0.3-1.9-0.8-2.5 -0.6-0.6-1.3-0.9-2.3-0.9 -1.7 0.1-3.2 1-4.4 2.9v16.7h-10.8v-16c0-1.1-0.3-2-0.8-2.6 -0.6-0.6-1.4-0.9-2.4-1 -1.5 0.1-3 1-4.3 2.9v16.7h-10.8V26.5z"></path>
    </g>
</svg>
